<svg xmlns="http://www.w3.org/2000/svg" xmlns:xlink="http://www.w3.org/1999/xlink" preserveAspectRatio="xMidYMid" width="370.4" height="681.56" viewBox="0 0 370.4 681.56">
  <defs>
    <style>
      .cls-1 {
        fill: #30282a;
        fill-rule: evenodd;
      }
    </style>
  </defs>
  <path d="M330.567,274.081 L319.621,210.592 L261.824,210.592 L251.753,274.081 L212.346,274.081 L260.948,-0.017 L318.307,-0.017 L370.412,274.081 L330.567,274.081 ZM289.409,34.136 L266.640,178.629 L314.367,178.629 L289.409,34.136 ZM87.557,602.911 L40.707,602.911 C13.559,602.911 -0.014,589.926 -0.014,563.942 L-0.014,366.907 C-0.014,341.224 13.559,328.375 40.707,328.375 L87.557,328.375 C114.704,328.375 128.278,341.224 128.278,366.907 L128.278,408.503 L88.433,408.503 L88.433,372.161 C88.433,366.907 87.557,363.479 85.806,361.871 C84.054,360.270 80.551,359.463 75.297,359.463 L52.966,359.463 C47.712,359.463 44.209,360.270 42.458,361.871 C40.707,363.479 39.831,366.907 39.831,372.161 L39.831,559.125 C39.831,564.380 40.707,567.814 42.458,569.415 C44.209,571.023 47.712,571.823 52.966,571.823 L75.297,571.823 C80.551,571.823 84.054,571.023 85.806,569.415 C87.557,567.814 88.433,564.380 88.433,559.125 L88.433,492.134 L66.540,492.134 L66.540,461.484 L128.278,461.484 L128.278,563.942 C128.278,589.926 114.704,602.911 87.557,602.911 ZM84.492,274.081 L42.020,274.081 C14.873,274.081 1.299,261.240 1.299,235.550 L1.299,195.267 L41.144,195.267 L41.144,229.420 C41.144,234.674 42.020,238.109 43.771,239.710 C45.523,241.317 49.026,242.118 54.280,242.118 L72.670,242.118 C77.924,242.118 81.352,241.317 82.960,239.710 C84.561,238.109 85.368,234.674 85.368,229.420 L85.368,162.428 C85.368,157.174 84.561,153.746 82.960,152.138 C81.352,150.537 77.924,149.730 72.670,149.730 L40.269,149.730 C13.703,149.730 0.424,136.745 0.424,110.761 L0.424,38.515 C0.424,12.832 13.997,-0.017 41.144,-0.017 L84.054,-0.017 C111.201,-0.017 124.775,12.832 124.775,38.515 L124.775,78.797 L84.930,78.797 L84.930,44.645 C84.930,39.390 84.054,35.963 82.303,34.355 C80.551,32.754 77.048,31.947 71.794,31.947 L53.404,31.947 C48.150,31.947 44.647,32.754 42.896,34.355 C41.144,35.963 40.269,39.390 40.269,44.645 L40.269,105.506 C40.269,110.761 41.144,114.195 42.896,115.796 C44.647,117.404 48.150,118.204 53.404,118.204 L85.368,118.204 C112.221,118.204 125.651,131.053 125.651,156.736 L125.651,235.550 C125.651,261.240 111.927,274.081 84.492,274.081 ZM352.679,681.570 L2.394,681.570 L2.394,646.541 L352.679,646.541 L352.679,681.570 ZM353.336,570.510 L353.336,602.473 L234.239,602.473 L234.239,328.375 L350.271,328.375 L350.271,360.339 L274.084,360.339 L274.084,444.845 L337.135,444.845 L337.135,476.809 L274.084,476.809 L274.084,570.510 L353.336,570.510 Z" class="cls-1"/>
</svg>
